<svg version="1.1" xmlns="http://www.w3.org/2000/svg" viewBox="-2571.5581529120086 -1034.2400390625 12643.621943424094 2592.0750366210937"><desc>Created with Snap</desc><defs></defs><g><rect x="-2571.5581529120086" y="-1034.2400390625" width="12643.621943424094" height="2592.0750366210937" fill="#9d4edd" style=""></rect><g transform="matrix(21.9738,0,0,21.9738,-2374.2278,-836.8875)"><g transform="translate(0,-952.36218)"><path style="" d="m 45.719885,957.36164 3.18651,38.66594 c -0.0104,0.002 -0.0207,0.005 -0.0312,0.007 -0.004,7.7e-4 -0.008,0.002 -0.0117,0.003 -0.0463,0.009 -0.093,0.0154 -0.13911,0.0247 -0.004,7.6e-4 -0.008,0.002 -0.0116,0.003 -0.0493,0.01 -0.0979,0.0214 -0.14692,0.0325 -0.006,9.5e-4 -0.0104,0.003 -0.0156,0.004 -0.2469,0.0566 -0.49069,0.12668 -0.72935,0.21192 -0.0121,0.005 -0.0243,0.009 -0.0364,0.013 -0.0131,0.005 -0.026,0.009 -0.039,0.0143 l -16.53063,-35.06206 -7.4261,4.25388 22.0885,31.88727 c -0.0888,0.0738 -0.17625,0.14988 -0.26131,0.22881 -0.007,0.007 -0.0138,0.013 -0.0208,0.0195 -0.0278,0.026 -0.0546,0.0528 -0.082,0.0793 -0.0108,0.0104 -0.0218,0.0207 -0.0325,0.0312 -0.027,0.0265 -0.054,0.0535 -0.0806,0.0806 -0.12959,0.13168 -0.25391,0.2685 -0.37052,0.40953 l -31.84697,-22.10018 -4.30459,7.3975 35.07899,16.57354 c -0.003,0.01 -0.006,0.016 -0.009,0.025 -0.0102,0.028 -0.0201,0.055 -0.0299,0.083 -0.004,0.012 -0.008,0.023 -0.0116,0.035 -0.01,0.029 -0.0205,0.057 -0.0299,0.086 -0.008,0.023 -0.0149,0.046 -0.0221,0.069 -0.0107,0.034 -0.0211,0.068 -0.0312,0.1014 -0.005,0.015 -0.009,0.029 -0.013,0.044 -0.009,0.032 -0.0187,0.063 -0.0273,0.095 -0.005,0.019 -0.009,0.037 -0.0143,0.056 -0.007,0.023 -0.0123,0.047 -0.0182,0.07 -0.004,0.015 -0.007,0.029 -0.0104,0.044 -0.0341,0.1397 -0.0639,0.2792 -0.0884,0.4199 l -38.65164,-3.1839 0.0299,8.5572 38.61653,-3.2138 c 0.0675,0.4021 0.1727,0.7969 0.31462,1.1792 l -35.06208,16.5293 4.25389,7.4274 31.88726,-22.0898 c 0.25307,0.3044 0.53719,0.5885 0.85027,0.8463 l -22.10152,31.8496 7.3975,4.3046 16.57354,-35.0803 c 0.37654,0.1391 0.76017,0.2403 1.14668,0.3055 l -3.18652,38.6634 8.55848,-0.03 -3.21511,-38.6374 c 0.0264,-0 0.053,-0.01 0.0793,-0.014 0.0321,-0.01 0.0642,-0.012 0.0962,-0.018 0.0335,-0.01 0.0668,-0.014 0.10011,-0.021 0.29999,-0.063 0.59199,-0.1459 0.87496,-0.2496 l 16.57481,35.0816 7.39621,-4.3046 -22.1015,-31.8496 c 0.30851,-0.2541 0.59265,-0.5371 0.84895,-0.8437 l 31.88727,22.0898 4.25388,-7.4274 -35.05427,-16.5268 c 0.14193,-0.3794 0.24892,-0.7761 0.31722,-1.1856 l 38.63343,3.2151 0.0299,-8.55722 -38.66854,3.18522 c -0.0674,-0.3924 -0.17038,-0.773 -0.30551,-1.1376 l 35.06857,-16.56831 -4.30458,-7.3975 -31.84437,22.0989 c -0.0287,-0.0346 -0.0565,-0.0688 -0.0858,-0.1027 -0.10171,-0.11774 -0.20865,-0.23059 -0.31853,-0.34063 -9.4e-4,-9.5e-4 -0.002,-0.003 -0.003,-0.004 -0.0341,-0.0341 -0.0691,-0.068 -0.104,-0.10142 -0.002,-0.002 -0.005,-0.005 -0.007,-0.007 -0.035,-0.0333 -0.071,-0.0663 -0.10661,-0.0988 -0.002,-0.002 -0.004,-0.005 -0.007,-0.007 -0.0357,-0.0325 -0.0714,-0.0633 -0.10791,-0.0949 -0.002,-0.002 -0.004,-0.005 -0.007,-0.007 -0.0335,-0.0291 -0.0686,-0.0575 -0.1027,-0.0858 l 22.08718,-31.88469 -7.42611,-4.25387 -16.52802,35.05687 c -0.37416,-0.13875 -0.76416,-0.24216 -1.16748,-0.30943 l 3.2151,-38.63342 -8.55848,-0.0299 z" fill="#ffffff" fill-opacity="1" fill-rule="nonzero" stroke="none"></path></g><desc>Created with Snap</desc><defs></defs></g><g><g transform="matrix(1.024,0,0,-1.024,0,0)"><path d="M91 0L40 0Q32 0 26 6Q20 12 20 20Q20 25 21 31L269 678Q273 688 280 694Q287 700 301 700L369 700Q383 700 390 694Q397 688 401 678L648 31Q650 25 650 20Q650 12 644 6Q638 0 630 0L579 0Q567 0 561 6Q556 12 554 17L499 159L171 159L116 17Q115 12 109 6Q103 0 91 0ZM335 600L200 245L470 245L335 600ZM815 0L768 0Q758 0 751 6Q745 13 745 23L745 687Q745 697 751 703Q758 710 768 710L815 710Q826 710 832 703Q838 697 838 687L838 23Q838 13 832 6Q826 0 815 0ZM1060 -190L1011 -190Q1001 -190 994 -184Q988 -177 988 -167L988 497Q988 507 994 513Q1001 520 1011 520L1057 520Q1067 520 1073 513Q1080 507 1080 497L1080 453Q1104 486 1144 508Q1184 530 1244 530Q1300 530 1339 511Q1379 492 1404 459Q1430 426 1443 384Q1456 342 1458 294Q1459 278 1459 260Q1459 242 1458 226Q1456 179 1443 136Q1430 94 1404 61Q1379 29 1339 9Q1300 -10 1244 -10Q1186 -10 1146 11Q1107 33 1082 65L1082 -167Q1082 -177 1076 -184Q1070 -190 1060 -190ZM1223 71Q1275 71 1304 93Q1334 116 1347 152Q1360 189 1362 231Q1363 260 1362 289Q1360 331 1347 367Q1334 404 1304 426Q1275 449 1223 449Q1174 449 1143 426Q1113 403 1098 367Q1084 332 1082 295Q1081 279 1081 257Q1081 235 1082 218Q1083 183 1098 149Q1114 115 1145 93Q1176 71 1223 71ZM1657 0L1607 0Q1597 0 1590 6Q1584 13 1584 23L1584 687Q1584 697 1590 703Q1597 710 1607 710L1657 710Q1668 710 1674 703Q1680 697 1680 687L1680 454Q1707 488 1746 509Q1785 530 1845 530Q1910 530 1955 501Q2001 473 2024 422Q2048 372 2048 305L2048 23Q2048 13 2042 6Q2036 0 2025 0L1975 0Q1965 0 1958 6Q1952 13 1952 23L1952 300Q1952 370 1918 409Q1884 449 1818 449Q1756 449 1718 409Q1680 370 1680 300L1680 23Q1680 13 1674 6Q1668 0 1657 0ZM2337 -10Q2287 -10 2246 10Q2205 30 2180 64Q2155 98 2155 141Q2155 210 2211 251Q2267 292 2357 305L2506 326L2506 355Q2506 403 2478 430Q2451 457 2389 457Q2356 457 2333 447Q2311 437 2297 423Q2283 409 2275 395Q2271 386 2266 382Q2262 378 2255 378L2212 378Q2203 378 2196 384Q2190 391 2190 400Q2190 415 2201 437Q2213 459 2237 480Q2261 501 2298 515Q2336 530 2390 530Q2450 530 2491 514Q2532 499 2555 473Q2579 447 2589 414Q2600 381 2600 347L2600 23Q2600 13 2593 6Q2587 0 2577 0L2531 0Q2520 0 2514 6Q2508 13 2508 23L2508 66Q2495 48 2473 30Q2451 13 2418 1Q2385 -10 2337 -10ZM2358 65Q2399 65 2433 82Q2467 100 2486 137Q2506 174 2506 230L2506 258L2390 241Q2319 231 2283 207Q2247 184 2247 148Q2247 120 2263 101Q2280 83 2305 74Q2331 65 2358 65ZM3307 0L3025 0Q3014 0 3008 6Q3002 13 3002 23L3002 676Q3002 687 3008 693Q3014 700 3025 700L3299 700Q3374 700 3421 675Q3469 651 3491 609Q3514 567 3514 515Q3514 474 3500 444Q3487 415 3467 396Q3447 378 3428 368Q3467 349 3497 306Q3528 263 3528 202Q3528 147 3503 101Q3478 55 3428 27Q3379 0 3307 0ZM3100 324L3100 81L3294 81Q3358 81 3393 116Q3428 151 3428 202Q3428 255 3393 289Q3358 324 3294 324L3100 324ZM3100 619L3100 404L3284 404Q3348 404 3381 433Q3414 463 3414 514Q3414 565 3381 592Q3348 619 3284 619L3100 619ZM3865 -10Q3761 -10 3700 53Q3639 117 3633 227Q3632 240 3632 260Q3632 281 3633 294Q3637 365 3666 418Q3695 472 3745 501Q3796 530 3864 530Q3940 530 3991 498Q4043 466 4070 407Q4097 348 4097 269L4097 252Q4097 241 4090 235Q4084 229 4074 229L3728 229Q3728 228 3728 225Q3728 222 3728 220Q3730 179 3746 143Q3762 108 3792 86Q3823 64 3864 64Q3900 64 3924 75Q3948 86 3963 99Q3978 113 3983 121Q3992 133 3997 135Q4002 138 4013 138L4062 138Q4071 138 4077 132Q4084 127 4083 117Q4082 102 4067 80Q4052 59 4024 38Q3997 17 3956 3Q3916 -10 3865 -10ZM3728 301L3728 298L4002 298L4002 301Q4002 346 3985 381Q3969 416 3938 436Q3907 457 3864 457Q3821 457 3790 436Q3760 416 3744 381Q3728 346 3728 301ZM4362 -10Q4312 -10 4271 10Q4230 30 4205 64Q4180 98 4180 141Q4180 210 4236 251Q4292 292 4382 305L4531 326L4531 355Q4531 403 4503 430Q4476 457 4414 457Q4381 457 4358 447Q4336 437 4322 423Q4308 409 4300 395Q4296 386 4291 382Q4287 378 4280 378L4237 378Q4228 378 4221 384Q4215 391 4215 400Q4215 415 4226 437Q4238 459 4262 480Q4286 501 4323 515Q4361 530 4415 530Q4475 530 4516 514Q4557 499 4580 473Q4604 447 4614 414Q4625 381 4625 347L4625 23Q4625 13 4618 6Q4612 0 4602 0L4556 0Q4545 0 4539 6Q4533 13 4533 23L4533 66Q4520 48 4498 30Q4476 13 4443 1Q4410 -10 4362 -10ZM4383 65Q4424 65 4458 82Q4492 100 4511 137Q4531 174 4531 230L4531 258L4415 241Q4344 231 4308 207Q4272 184 4272 148Q4272 120 4288 101Q4305 83 4330 74Q4356 65 4383 65ZM4840 0L4792 0Q4782 0 4775 6Q4769 13 4769 23L4769 497Q4769 507 4775 513Q4782 520 4792 520L4837 520Q4847 520 4853 513Q4860 507 4860 497L4860 462Q4883 493 4918 511Q4953 530 5002 530Q5115 531 5162 438Q5185 480 5229 505Q5273 530 5329 530Q5381 530 5423 506Q5466 482 5490 433Q5515 385 5515 312L5515 23Q5515 13 5508 6Q5502 0 5492 0L5445 0Q5435 0 5428 6Q5422 13 5422 23L5422 303Q5422 359 5406 391Q5390 423 5363 436Q5336 449 5304 449Q5278 449 5251 436Q5224 423 5206 391Q5189 359 5189 303L5189 23Q5189 13 5182 6Q5176 0 5166 0L5119 0Q5109 0 5102 6Q5096 13 5096 23L5096 303Q5096 359 5079 391Q5062 423 5035 436Q5008 449 4978 449Q4952 449 4925 436Q4898 423 4880 391Q4863 359 4863 304L4863 23Q4863 13 4856 6Q4850 0 4840 0ZM5866 -10Q5762 -10 5701 53Q5640 117 5634 227Q5633 240 5633 260Q5633 281 5634 294Q5638 365 5667 418Q5696 472 5746 501Q5797 530 5865 530Q5941 530 5992 498Q6044 466 6071 407Q6098 348 6098 269L6098 252Q6098 241 6091 235Q6085 229 6075 229L5729 229Q5729 228 5729 225Q5729 222 5729 220Q5731 179 5747 143Q5763 108 5793 86Q5824 64 5865 64Q5901 64 5925 75Q5949 86 5964 99Q5979 113 5984 121Q5993 133 5998 135Q6003 138 6014 138L6063 138Q6072 138 6078 132Q6085 127 6084 117Q6083 102 6068 80Q6053 59 6025 38Q5998 17 5957 3Q5917 -10 5866 -10ZM5729 301L5729 298L6003 298L6003 301Q6003 346 5986 381Q5970 416 5939 436Q5908 457 5865 457Q5822 457 5791 436Q5761 416 5745 381Q5729 346 5729 301ZM6290 0L6241 0Q6231 0 6224 6Q6218 13 6218 23L6218 496Q6218 506 6224 513Q6231 520 6241 520L6287 520Q6297 520 6304 513Q6311 506 6311 496L6311 452Q6331 486 6366 503Q6401 520 6451 520L6490 520Q6500 520 6506 513Q6513 507 6513 497L6513 456Q6513 446 6506 440Q6500 434 6490 434L6430 434Q6376 434 6345 402Q6314 371 6314 317L6314 23Q6314 13 6307 6Q6300 0 6290 0ZM6778 -10Q6722 -10 6682 4Q6642 18 6617 38Q6592 58 6579 78Q6567 98 6566 110Q6565 121 6573 127Q6581 133 6589 133L6634 133Q6639 133 6642 131Q6646 130 6652 123Q6665 109 6681 95Q6697 81 6720 72Q6744 63 6779 63Q6830 63 6863 82Q6896 102 6896 140Q6896 165 6882 180Q6869 195 6834 207Q6800 219 6740 232Q6680 246 6645 266Q6610 287 6595 315Q6580 344 6580 380Q6580 417 6602 451Q6624 486 6666 508Q6709 530 6773 530Q6825 530 6862 517Q6899 504 6923 484Q6947 465 6959 446Q6971 427 6972 414Q6973 404 6966 397Q6959 391 6950 391L6908 391Q6901 391 6896 394Q6892 397 6888 401Q6878 414 6864 427Q6851 440 6829 448Q6808 457 6773 457Q6723 457 6698 436Q6673 415 6673 383Q6673 364 6684 349Q6695 334 6726 322Q6757 310 6818 296Q6884 283 6922 261Q6960 239 6976 210Q6992 181 6992 143Q6992 101 6968 66Q6944 31 6896 10Q6848 -10 6778 -10ZM7610 -10Q7550 -10 7510 11Q7470 33 7446 65L7446 23Q7446 13 7439 6Q7433 0 7423 0L7377 0Q7367 0 7360 6Q7354 13 7354 23L7354 687Q7354 697 7360 703Q7367 710 7377 710L7426 710Q7436 710 7442 703Q7448 697 7448 687L7448 457Q7473 488 7512 509Q7552 530 7610 530Q7666 530 7705 510Q7745 491 7770 457Q7796 423 7809 380Q7822 337 7824 290Q7825 274 7825 260Q7825 246 7824 230Q7822 182 7809 139Q7796 96 7770 62Q7745 29 7705 9Q7666 -10 7610 -10ZM7589 71Q7641 71 7670 93Q7700 116 7713 152Q7726 189 7728 231Q7729 260 7728 289Q7726 331 7713 367Q7700 404 7670 426Q7641 449 7589 449Q7542 449 7511 427Q7480 405 7464 371Q7449 337 7448 302Q7447 286 7447 263Q7447 241 7448 225Q7450 188 7464 152Q7479 117 7509 94Q7540 71 7589 71ZM8093 -10Q8043 -10 8002 10Q7961 30 7936 64Q7911 98 7911 141Q7911 210 7967 251Q8023 292 8113 305L8262 326L8262 355Q8262 403 8234 430Q8207 457 8145 457Q8112 457 8089 447Q8067 437 8053 423Q8039 409 8031 395Q8027 386 8022 382Q8018 378 8011 378L7968 378Q7959 378 7952 384Q7946 391 7946 400Q7946 415 7957 437Q7969 459 7993 480Q8017 501 8054 515Q8092 530 8146 530Q8206 530 8247 514Q8288 499 8311 473Q8335 447 8345 414Q8356 381 8356 347L8356 23Q8356 13 8349 6Q8343 0 8333 0L8287 0Q8276 0 8270 6Q8264 13 8264 23L8264 66Q8251 48 8229 30Q8207 13 8174 1Q8141 -10 8093 -10ZM8114 65Q8155 65 8189 82Q8223 100 8242 137Q8262 174 8262 230L8262 258L8146 241Q8075 231 8039 207Q8003 184 8003 148Q8003 120 8019 101Q8036 83 8061 74Q8087 65 8114 65ZM8573 0L8523 0Q8513 0 8506 6Q8500 13 8500 23L8500 497Q8500 507 8506 513Q8513 520 8523 520L8570 520Q8580 520 8586 513Q8593 507 8593 497L8593 453Q8619 487 8658 508Q8698 530 8760 530Q8825 530 8870 501Q8916 473 8939 422Q8963 372 8963 305L8963 23Q8963 13 8956 6Q8950 0 8940 0L8890 0Q8880 0 8873 6Q8867 13 8867 23L8867 300Q8867 370 8833 409Q8799 449 8733 449Q8671 449 8633 409Q8596 370 8596 300L8596 23Q8596 13 8589 6Q8583 0 8573 0ZM9177 0L9130 0Q9120 0 9113 6Q9107 13 9107 23L9107 687Q9107 697 9113 703Q9120 710 9130 710L9177 710Q9187 710 9193 703Q9200 697 9200 687L9200 339L9397 503Q9409 513 9415 516Q9422 520 9437 520L9490 520Q9499 520 9505 514Q9511 508 9511 499Q9511 495 9508 490Q9506 485 9499 480L9268 288L9524 39Q9536 29 9536 21Q9536 12 9530 6Q9524 0 9515 0L9463 0Q9448 0 9441 3Q9434 7 9423 17L9200 230L9200 23Q9200 13 9193 6Q9187 0 9177 0Z" fill="#ffffff" style=""></path></g></g><g transform="matrix(0.75,0,0,0.75,-3.895,1086.76)"><g transform="matrix(0.5,0,0,-0.5,0,0)"><path d="M992 0L470 0L470 126L633 154L633 530L185 1310L65 1329L65 1456L567 1456L567 1329L401 1310L710 738L731 699L732 701L752 738L1076 1310L904 1329L904 1456L1396 1456L1396 1329L1269 1310L829 545L829 154L992 126L992 0ZM2028 -21Q1878 -21 1767 47Q1656 116 1595 238Q1535 360 1535 520L1535 564Q1535 718 1598 839Q1662 961 1767 1031Q1873 1102 1998 1102Q2144 1102 2242 1042Q2341 982 2391 873Q2441 765 2441 618L2441 495L1739 495L1736 490Q1738 386 1772 305Q1807 225 1872 179Q1937 133 2028 133Q2128 133 2203 161Q2279 190 2334 240L2411 112Q2353 56 2257 17Q2162 -21 2028 -21ZM1743 654L1745 649L2244 649L2244 675Q2244 753 2216 814Q2189 876 2134 911Q2080 947 1998 947Q1932 947 1878 908Q1824 870 1789 804Q1754 738 1743 654ZM3032 -21Q2923 -21 2828 1Q2733 23 2626 69L2624 326L2773 326L2810 171Q2866 148 2918 137Q2971 127 3032 127Q3152 127 3204 173Q3256 219 3256 287Q3256 351 3203 395Q3151 440 3013 471Q2817 516 2724 591Q2632 667 2632 793Q2632 881 2683 950Q2734 1020 2825 1061Q2916 1102 3037 1102Q3160 1102 3247 1074Q3335 1046 3400 999L3410 752L3262 752L3230 896Q3195 922 3147 936Q3099 950 3037 950Q2945 950 2887 907Q2830 864 2830 799Q2830 761 2846 733Q2863 705 2910 682Q2957 660 3048 638Q3274 585 3363 503Q3453 421 3453 301Q3453 164 3351 71Q3250 -21 3032 -21ZM3882 478L3685 478L3685 1456L3882 1456L3882 478ZM3882 0L3685 0L3685 204L3882 204L3882 0ZM5245 0L5069 0L4729 1314L4606 1329L4606 1456L5078 1456L5078 1329L4927 1306L5117 505L5161 318L5167 317L5225 504L5518 1456L5691 1456L5987 504L6044 306L6050 306L6102 504L6290 1306L6127 1329L6127 1456L6591 1456L6591 1329L6476 1314L6150 0L5963 0L5647 1008L5607 1155L5601 1155L5562 1008L5245 0ZM7235 0L6712 0L6712 126L6875 154L6875 1405L6712 1433L6712 1560L7072 1560L7072 938Q7128 1016 7209 1059Q7290 1102 7389 1102Q7563 1102 7659 998Q7755 894 7755 678L7755 154L7918 126L7918 0L7395 0L7395 126L7558 154L7558 680Q7558 814 7500 878Q7443 942 7329 942Q7248 942 7181 903Q7115 865 7072 799L7072 154L7235 126L7235 0ZM8287 -437Q8264 -437 8227 -432Q8190 -426 8170 -421L8190 -266Q8207 -268 8237 -270Q8267 -271 8278 -271Q8341 -271 8380 -223Q8420 -175 8454 -92L8501 22L8118 939L8002 955L8002 1082L8456 1082L8456 955L8325 935L8536 394L8587 253L8593 253L8843 935L8705 955L8705 1082L9150 1082L9150 955L9038 939L8612 -166Q8582 -244 8539 -306Q8497 -367 8435 -402Q8374 -437 8287 -437ZM10285 0L9762 0L9762 126L9925 154L9925 1301L9762 1329L9762 1456L9925 1456L10124 1456L10838 321L10844 323L10844 1301L10665 1329L10665 1456L11025 1456L11188 1456L11188 1329L11025 1301L11025 0L10845 0L10112 1141L10106 1139L10106 154L10285 126L10285 0ZM11834 -21Q11684 -21 11575 49Q11467 120 11408 244Q11349 369 11349 529L11349 551Q11349 711 11408 835Q11467 960 11575 1031Q11684 1102 11832 1102Q11982 1102 12090 1031Q12199 960 12258 836Q12317 712 12317 551L12317 529Q12317 368 12258 243Q12199 119 12091 49Q11983 -21 11834 -21ZM11834 133Q11928 133 11991 184Q12055 236 12087 325Q12120 415 12120 529L12120 551Q12120 665 12087 754Q12055 844 11991 895Q11927 947 11832 947Q11738 947 11674 895Q11610 844 11578 754Q11546 665 11546 551L11546 529Q11546 415 11578 325Q11610 236 11674 184Q11739 133 11834 133ZM12851 -17Q12731 -17 12660 53Q12590 124 12590 279L12590 936L12419 936L12419 1082L12590 1082L12590 1343L12787 1343L12787 1082L13022 1082L13022 936L12787 936L12787 279Q12787 201 12818 164Q12849 127 12901 127Q12936 127 12979 133Q13022 140 13046 145L13073 16Q13030 3 12967 -7Q12905 -17 12851 -17ZM13682 410L13485 410Q13485 483 13490 530Q13495 577 13509 611Q13524 645 13554 679Q13584 713 13635 759Q13706 823 13745 878Q13785 933 13801 985Q13818 1037 13818 1091Q13818 1197 13761 1254Q13705 1311 13600 1311Q13509 1311 13445 1261Q13382 1212 13382 1116L13194 1116L13191 1122Q13189 1229 13241 1309Q13294 1389 13387 1433Q13480 1477 13600 1477Q13797 1477 13906 1376Q14015 1276 14015 1096Q14015 1010 13986 939Q13958 869 13901 798Q13844 728 13758 641Q13723 605 13707 575Q13691 546 13686 508Q13682 471 13682 410ZM13688 0L13483 0L13483 208L13688 208L13688 0ZM14418 478L14221 478L14221 1456L14418 1456L14418 478ZM14418 0L14221 0L14221 204L14418 204L14418 0Z" fill="#ffffff" style=""></path></g></g></g></svg>